<?xml version="1.0" encoding="UTF-8"?>
<svg xmlns="http://www.w3.org/2000/svg" style="display:none">
  <!-- HOME -->
  <symbol id="icon-home" viewBox="0 0 24 24">
    <path d="M3 10.5L12 3l9 7.5" fill="none" stroke="currentColor" stroke-width="2" stroke-linecap="round" stroke-linejoin="round"/>
    <path d="M5 9.5V21h14V9.5" fill="none" stroke="currentColor" stroke-width="2" stroke-linecap="round" stroke-linejoin="round"/>
  </symbol>

  <!-- CART / ORDERS -->
  <symbol id="icon-cart" viewBox="0 0 24 24">
    <circle cx="9" cy="20" r="1.5" fill="none" stroke="currentColor" stroke-width="2"/>
    <circle cx="18" cy="20" r="1.5" fill="none" stroke="currentColor" stroke-width="2"/>
    <path d="M3 4h2l2.5 11h11l2-8H6.5" fill="none" stroke="currentColor" stroke-width="2" stroke-linecap="round" stroke-linejoin="round"/>
  </symbol>

  <!-- PRODUCTS / BOX -->
  <symbol id="icon-box" viewBox="0 0 24 24">
    <path d="M3 7l9-4 9 4-9 4-9-4z" fill="none" stroke="currentColor" stroke-width="2" stroke-linecap="round" stroke-linejoin="round"/>
    <path d="M3 7v10l9 4 9-4V7" fill="none" stroke="currentColor" stroke-width="2" stroke-linecap="round" stroke-linejoin="round"/>
    <path d="M12 11v10" fill="none" stroke="currentColor" stroke-width="2" stroke-linecap="round" stroke-linejoin="round"/>
  </symbol>

  <!-- CAMERA -->
  <symbol id="icon-camera" viewBox="0 0 24 24">
    <rect x="3" y="7" width="18" height="14" rx="2" fill="none" stroke="currentColor" stroke-width="2" stroke-linecap="round" stroke-linejoin="round"/>
    <circle cx="12" cy="14" r="4" fill="none" stroke="currentColor" stroke-width="2" stroke-linecap="round" stroke-linejoin="round"/>
    <path d="M9 7l1.5-2h3L15 7" fill="none" stroke="currentColor" stroke-width="2" stroke-linecap="round" stroke-linejoin="round"/>
  </symbol>

  <!-- ARROWS -->
  <symbol id="icon-left" viewBox="0 0 24 24">
    <path d="M15 18l-6-6 6-6" fill="none" stroke="currentColor" stroke-width="2" stroke-linecap="round" stroke-linejoin="round"/>
  </symbol>

  <symbol id="icon-right" viewBox="0 0 24 24">
    <path d="M9 6l6 6-6 6" fill="none" stroke="currentColor" stroke-width="2" stroke-linecap="round" stroke-linejoin="round"/>
  </symbol>

  <symbol id="icon-up" viewBox="0 0 24 24">
    <path d="M6 15l6-6 6 6" fill="none" stroke="currentColor" stroke-width="2" stroke-linecap="round" stroke-linejoin="round"/>
  </symbol>
</svg>